<?xml version="1.0" encoding="UTF-8"?>
<!-- Generated by Pixelmator Pro 3.1.1 -->
<svg width="768" height="1360" viewBox="0 0 768 1360" xmlns="http://www.w3.org/2000/svg" xmlns:xlink="http://www.w3.org/1999/xlink">
    <path id="Path" fill="#000000" stroke="none" d="M 768 0 L 768 1360 L -0 1360 L 0 0 Z"/>
    <linearGradient id="linearGradient1" x1="1064" y1="296" x2="-296" y2="296" gradientUnits="userSpaceOnUse" gradientTransform="matrix(-0 1 -1 -0 1064 296)">
        <stop offset="1e-05" stop-color="#000000" stop-opacity="1"/>
        <stop offset="1" stop-color="#4682b4" stop-opacity="1"/>
    </linearGradient>
    <path id="path1" fill="url(#linearGradient1)" stroke="none" d="M 768 0 L 768 1360 L -0 1360 L 0 0 Z"/>
    <path id="path2" fill="#ffffff" stroke="none" opacity="0.01" d="M 763 5 L 763 7 L 762 7 L 762 6 L 761 6 L 761 7 L 760 7 L 760 5 Z M 765 4 L 765 8 L 764 8 L 764 9 L 759 9 L 759 8 L 758 8 L 758 4 L 759 4 L 759 3 L 764 3 L 764 4 L 759 4 L 759 8 L 764 8 L 764 4 Z M 764 11 L 764 12 L 762 12 L 762 13 L 764 13 L 764 14 L 762 14 L 762 13 L 761 13 L 761 14 L 759 14 L 759 13 L 761 13 L 761 12 L 759 12 L 759 11 L 761 11 L 761 12 L 762 12 L 762 11 Z M 764 15 L 764 20 L 759 20 L 759 19 L 763 19 L 763 18 L 759 18 L 759 17 L 763 17 L 763 16 L 759 16 L 759 15 Z M 764 21 L 764 24 L 763 23 L 763 22 L 760 22 L 760 23 L 763 23 L 764 24 L 759 24 L 759 22 L 757 22 L 757 21 Z M 766 25 L 766 26 L 760 26 L 760 27 L 759 27 L 759 25 Z M 764 28 L 764 31 L 763 30 L 763 29 L 762 29 L 762 30 L 763 30 L 764 31 L 761 31 L 761 29 L 760 29 L 760 31 L 759 31 L 759 28 L 764 28 Z M 760 32 L 760 33 L 759 33 L 759 32 Z M 764 34 L 764 37 L 763 37 L 763 35 L 760 35 L 760 37 L 759 37 L 759 34 Z M 764 38 L 764 41 L 759 41 L 759 38 L 760 39 L 760 40 L 763 40 L 763 39 L 760 39 L 759 38 Z M 764 42 L 764 47 L 759 47 L 759 46 L 763 46 L 763 45 L 759 45 L 759 44 L 763 44 L 763 43 L 759 43 L 759 42 Z"/>
    <text id="xmplecom" opacity="0.01" transform="matrix(-0 1 -1 -0 40.5 22.5)" xml:space="preserve" x="-21" y="33" font-family="Times New Roman" font-size="12" fill="#ffffff">xmple.com</text>
    <g id="Group">
        <text id="text1" opacity="0.01" transform="matrix(0 1 -1 0 2070.5 572.5)" xml:space="preserve" x="779" y="1323" text-anchor="end" font-family="Times New Roman" font-size="12" fill="#ffffff">xmple.com</text>
    </g>
    <g id="g1">
        <g id="a" opacity="0.35">
            <path id="path3" fill="#ffffff" stroke="#555555" stroke-width="0.433493" stroke-linecap="round" stroke-linejoin="round" d="M 13.045398 1247.309204 L 17.878849 1243.27771 C 17.987221 1243.169312 18.138945 1243.125977 18.312342 1243.125977 C 18.485739 1243.125977 18.659136 1243.190918 18.767509 1243.321045 C 18.897558 1243.45105 18.962582 1243.602783 18.962582 1243.797852 C 18.962582 1243.971313 18.897558 1244.122925 18.767509 1244.253052 L 14.085782 1248.176147 L 18.767509 1252.077637 C 18.897558 1252.22937 18.962582 1252.380981 18.962582 1252.554443 C 18.962582 1252.749512 18.897558 1252.901245 18.767509 1253.03125 C 18.637461 1253.161377 18.485739 1253.226318 18.290667 1253.226318 C 18.11727 1253.226318 17.965548 1253.161377 17.857174 1253.074585 L 13.023724 1249.021484 L 8.146924 1253.096313 C 8.016875 1253.182983 7.886827 1253.226318 7.735105 1253.226318 C 7.540033 1253.226318 7.38831 1253.161377 7.258263 1253.03125 C 7.128214 1252.901245 7.06319 1252.749512 7.06319 1252.554443 C 7.06319 1252.380981 7.128214 1252.22937 7.258263 1252.120972 L 11.961665 1248.176147 L 7.258263 1244.231323 C 7.128214 1244.122925 7.06319 1243.971313 7.06319 1243.797852 C 7.06319 1243.602783 7.128214 1243.45105 7.258263 1243.321045 C 7.38831 1243.190918 7.540033 1243.125977 7.71343 1243.125977 C 7.865153 1243.125977 7.995201 1243.169312 8.103575 1243.255981 Z M 7.75678 1256.239136 C 7.561707 1256.239136 7.409985 1256.174072 7.279937 1256.044067 C 7.149889 1255.914063 7.084865 1255.762329 7.084865 1255.567261 C 7.084865 1255.393799 7.149889 1255.242065 7.279937 1255.112061 C 7.409985 1254.981934 7.561707 1254.916992 7.735105 1254.916992 L 18.268991 1254.916992 C 18.44239 1254.916992 18.615788 1254.981934 18.724159 1255.112061 C 18.854208 1255.242065 18.919231 1255.393799 18.919231 1255.567261 C 18.919231 1255.762329 18.854208 1255.914063 18.724159 1256.044067 C 18.594112 1256.174072 18.44239 1256.239136 18.247318 1256.239136 L 17.532053 1256.239136 C 18.44239 1257.301147 18.897558 1258.406616 18.897558 1259.533691 C 18.897558 1260.790771 18.44239 1261.874512 17.532053 1262.784912 C 17.315308 1263.001587 17.033537 1263.23999 16.708416 1263.478516 C 17.033537 1263.716919 17.315308 1263.955322 17.532053 1264.171997 C 18.44239 1265.082397 18.875883 1266.166138 18.875883 1267.423218 C 18.875883 1268.702026 18.420715 1269.785767 17.51038 1270.696167 C 16.621717 1271.584839 15.51631 1272.039917 14.259179 1272.039917 L 7.670081 1272.039917 C 7.475009 1272.039917 7.323287 1271.974976 7.193238 1271.844849 C 7.06319 1271.714844 6.998167 1271.56311 6.998167 1271.368042 C 6.998167 1271.194702 7.06319 1271.042969 7.193238 1270.912842 C 7.323287 1270.782837 7.475009 1270.717773 7.648407 1270.717773 L 14.237505 1270.717773 C 15.14784 1270.717773 15.928128 1270.3927 16.556694 1269.742432 C 17.206934 1269.092163 17.532053 1268.333618 17.532053 1267.423218 C 17.532053 1266.534546 17.206934 1265.754272 16.556694 1265.104004 C 15.906454 1264.453857 15.14784 1264.128662 14.237505 1264.128662 L 7.648407 1264.128662 C 7.453334 1264.128662 7.301612 1264.063721 7.171564 1263.933594 C 7.041516 1263.803589 6.976492 1263.651855 6.976492 1263.478516 C 6.976492 1263.283447 7.041516 1263.131714 7.171564 1263.001587 C 7.301612 1262.871582 7.453334 1262.806519 7.626732 1262.806519 L 14.21583 1262.806519 C 15.126165 1262.806519 15.906454 1262.503052 16.535019 1261.852905 C 17.185259 1261.202637 17.51038 1260.422363 17.51038 1259.533691 C 17.51038 1258.623291 17.185259 1257.843018 16.535019 1257.192749 C 15.884779 1256.564209 15.126165 1256.239136 14.21583 1256.239136 Z M 13.023724 1274.901001 C 11.744918 1274.901001 10.661185 1275.356201 9.772524 1276.266479 C 8.862187 1277.155151 8.40702 1278.238892 8.40702 1279.5177 C 8.40702 1280.796509 8.862187 1281.880249 9.750849 1282.768921 C 10.63951 1283.679199 11.723244 1284.112793 13.002048 1284.112793 C 14.280854 1284.112793 15.364587 1283.679199 16.253248 1282.768921 C 17.163584 1281.880249 17.597078 1280.796509 17.597078 1279.5177 C 17.597078 1278.238892 17.141911 1277.155151 16.231573 1276.266479 C 15.321238 1275.356201 14.237505 1274.901001 12.980374 1274.901001 Z M 2.663234 1274.901001 C 2.468161 1274.901001 2.316439 1274.835938 2.186391 1274.705933 C 2.078017 1274.575928 2.012994 1274.424194 2.012994 1274.250732 C 2.012994 1274.055664 2.078017 1273.903931 2.186391 1273.773926 C 2.316439 1273.643921 2.468161 1273.600586 2.663234 1273.600586 L 13.002048 1273.600586 C 14.627648 1273.600586 16.036501 1274.164063 17.185259 1275.334473 C 18.334017 1276.483276 18.919231 1277.870483 18.919231 1279.5177 C 18.919231 1281.143311 18.334017 1282.552124 17.185259 1283.700928 C 16.036501 1284.871338 14.627648 1285.434937 13.002048 1285.434937 C 11.354774 1285.434937 9.967595 1284.871338 8.818838 1283.700928 C 7.670081 1282.552124 7.084865 1281.143311 7.084865 1279.5177 C 7.084865 1277.870483 7.670081 1276.483276 8.818838 1275.334473 L 9.230657 1274.901001 Z M 23.384212 1287.21228 C 23.55761 1287.21228 23.731009 1287.277222 23.83938 1287.407349 C 23.969429 1287.537354 24.034452 1287.689087 24.034452 1287.862427 C 24.034452 1288.057495 23.969429 1288.209229 23.83938 1288.339355 C 23.709333 1288.46936 23.55761 1288.534424 23.384212 1288.534424 L 8.40702 1288.534424 L 8.40702 1289.618164 C 8.40702 1289.813232 8.341995 1289.964844 8.211947 1290.094971 C 8.0819 1290.224976 7.930177 1290.290039 7.735105 1290.290039 C 7.540033 1290.290039 7.38831 1290.224976 7.258263 1290.094971 C 7.128214 1289.964844 7.06319 1289.813232 7.06319 1289.618164 L 7.06319 1287.862427 C 7.06319 1287.689087 7.128214 1287.537354 7.258263 1287.407349 C 7.38831 1287.277222 7.540033 1287.21228 7.71343 1287.21228 Z M 13.673964 1302.731323 C 14.714347 1302.536255 15.603008 1302.081055 16.274923 1301.40918 C 17.185259 1300.498779 17.618752 1299.415039 17.618752 1298.13623 C 17.618752 1296.87915 17.163584 1295.79541 16.253248 1294.88501 C 15.581334 1294.213135 14.714347 1293.757935 13.652288 1293.54126 Z M 9.642475 1301.517456 C 9.642475 1301.712524 9.577452 1301.864258 9.447404 1301.994385 C 9.317355 1302.102661 9.165633 1302.167725 8.970561 1302.167725 C 8.797164 1302.167725 8.645441 1302.12439 8.515393 1302.015991 C 7.561707 1300.910645 7.084865 1299.610107 7.084865 1298.13623 C 7.084865 1296.51062 7.670081 1295.101807 8.818838 1293.953003 C 9.967595 1292.804321 11.376449 1292.219116 13.002048 1292.219116 C 14.627648 1292.219116 16.036501 1292.804321 17.185259 1293.953003 C 18.334017 1295.101807 18.919231 1296.51062 18.919231 1298.13623 C 18.919231 1299.783569 18.334017 1301.170654 17.185259 1302.341187 C 16.036501 1303.489868 14.627648 1304.075073 13.002048 1304.075073 C 12.806976 1304.075073 12.655254 1304.010132 12.525206 1303.880005 C 12.395158 1303.75 12.330134 1303.598267 12.330134 1303.403198 L 12.330134 1293.54126 C 11.268075 1293.757935 10.401089 1294.213135 9.729175 1294.88501 C 8.818838 1295.79541 8.36367 1296.87915 8.36367 1298.13623 C 8.36367 1298.721436 8.450369 1299.263306 8.645441 1299.761841 C 8.840513 1300.238647 9.100609 1300.693848 9.447404 1301.105713 C 9.534102 1301.235718 9.599126 1301.365723 9.599126 1301.517456 Z M 8.190273 1308.171631 C 7.886827 1308.171631 7.626732 1308.063232 7.409985 1307.846558 C 7.193238 1307.651489 7.084865 1307.391357 7.084865 1307.066162 C 7.084865 1306.762817 7.193238 1306.502686 7.409985 1306.285889 C 7.626732 1306.09082 7.886827 1305.982422 8.190273 1305.982422 C 8.493718 1305.982422 8.753815 1306.09082 8.970561 1306.285889 C 9.187307 1306.502686 9.295681 1306.762817 9.295681 1307.066162 C 9.295681 1307.391357 9.187307 1307.651489 8.970561 1307.846558 C 8.775489 1308.063232 8.515393 1308.171631 8.190273 1308.171631 Z M 9.66415 1319.334106 C 9.66415 1319.507446 9.599126 1319.65918 9.469078 1319.789185 C 9.33903 1319.919312 9.187307 1319.984253 8.992235 1319.984253 C 8.797164 1319.984253 8.645441 1319.919312 8.515393 1319.789185 C 8.060225 1319.247314 7.71343 1318.662109 7.453334 1317.990234 C 7.214913 1317.339966 7.084865 1316.646362 7.084865 1315.931152 C 7.084865 1314.283936 7.670081 1312.896729 8.818838 1311.726318 C 9.967595 1310.577515 11.376449 1309.99231 13.002048 1309.99231 C 14.627648 1309.99231 16.036501 1310.577515 17.185259 1311.726318 C 18.334017 1312.896729 18.919231 1314.283936 18.919231 1315.931152 C 18.919231 1316.646362 18.789185 1317.339966 18.550762 1318.011963 C 18.312342 1318.662109 17.943872 1319.247314 17.488705 1319.789185 C 17.423679 1319.854248 17.336981 1319.897583 17.250282 1319.940918 C 17.163584 1320.005981 17.05521 1320.02771 16.968512 1320.02771 C 16.795115 1320.02771 16.621717 1319.962646 16.513344 1319.832642 C 16.383297 1319.702515 16.318272 1319.550781 16.318272 1319.355713 C 16.318272 1319.203979 16.361622 1319.052246 16.469995 1318.94397 C 17.228609 1318.076904 17.597078 1317.079956 17.597078 1315.931152 C 17.597078 1314.652344 17.141911 1313.568604 16.231573 1312.658325 C 15.342913 1311.769653 14.259179 1311.314453 12.980374 1311.314453 C 11.701569 1311.314453 10.617835 1311.769653 9.729175 1312.658325 C 8.818838 1313.568604 8.36367 1314.652344 8.36367 1315.931152 C 8.36367 1316.473022 8.472044 1317.014893 8.667115 1317.535034 C 8.862187 1318.055298 9.143958 1318.532104 9.490753 1318.94397 C 9.577452 1319.052246 9.620801 1319.182373 9.620801 1319.334106 Z M 13.023724 1333.704346 C 11.376449 1333.704346 9.98927 1333.119141 8.840513 1331.970459 C 7.691756 1330.799927 7.10654 1329.412842 7.10654 1327.787231 C 7.10654 1326.139893 7.691756 1324.752686 8.840513 1323.582275 C 9.98927 1322.433594 11.398124 1321.848389 13.023724 1321.848389 C 14.649323 1321.848389 16.058176 1322.433594 17.206934 1323.582275 C 18.35569 1324.752686 18.940907 1326.139893 18.940907 1327.787231 C 18.940907 1329.412842 18.35569 1330.799927 17.206934 1331.970459 C 16.058176 1333.119141 14.649323 1333.704346 13.023724 1333.704346 Z M 17.640427 1327.787231 C 17.640427 1326.508423 17.185259 1325.424683 16.274923 1324.514282 C 15.364587 1323.604004 14.280854 1323.170532 13.023724 1323.170532 C 11.744918 1323.170532 10.661185 1323.604004 9.772524 1324.514282 C 8.862187 1325.424683 8.40702 1326.508423 8.40702 1327.787231 C 8.40702 1329.044312 8.862187 1330.128052 9.750849 1331.038452 C 10.63951 1331.927002 11.723244 1332.382202 13.002048 1332.382202 C 14.280854 1332.382202 15.364587 1331.927002 16.253248 1331.038452 C 17.163584 1330.128052 17.597078 1329.044312 17.597078 1327.787231 Z M 7.75678 1336.673828 C 7.561707 1336.673828 7.409985 1336.608765 7.279937 1336.47876 C 7.149889 1336.348633 7.084865 1336.197021 7.084865 1336.001831 C 7.084865 1335.828491 7.149889 1335.676758 7.279937 1335.546753 C 7.409985 1335.416626 7.561707 1335.351685 7.735105 1335.351685 L 18.268991 1335.351685 C 18.44239 1335.351685 18.615788 1335.416626 18.724159 1335.546753 C 18.854208 1335.676758 18.919231 1335.828491 18.919231 1336.001831 C 18.919231 1336.197021 18.854208 1336.348633 18.724159 1336.47876 C 18.594112 1336.608765 18.44239 1336.673828 18.247318 1336.673828 L 17.532053 1336.673828 C 18.44239 1337.73584 18.897558 1338.841309 18.897558 1339.968384 C 18.897558 1341.225464 18.44239 1342.309204 17.532053 1343.219604 C 17.315308 1343.436279 17.033537 1343.674683 16.708416 1343.913086 C 17.033537 1344.151611 17.315308 1344.368286 17.532053 1344.606689 C 18.44239 1345.51709 18.875883 1346.60083 18.875883 1347.85791 C 18.875883 1349.136719 18.420715 1350.220459 17.51038 1351.130859 C 16.621717 1352.019409 15.51631 1352.474609 14.259179 1352.474609 L 7.670081 1352.474609 C 7.475009 1352.474609 7.323287 1352.409668 7.193238 1352.279541 C 7.06319 1352.149536 6.998167 1351.997803 6.998167 1351.802734 C 6.998167 1351.629272 7.06319 1351.477661 7.193238 1351.347534 C 7.323287 1351.217529 7.475009 1351.152466 7.648407 1351.152466 L 14.237505 1351.152466 C 15.14784 1351.152466 15.928128 1350.827393 16.556694 1350.177124 C 17.206934 1349.526855 17.532053 1348.768311 17.532053 1347.85791 C 17.532053 1346.969238 17.206934 1346.188965 16.556694 1345.538696 C 15.906454 1344.88855 15.14784 1344.563354 14.237505 1344.563354 L 7.648407 1344.563354 C 7.453334 1344.563354 7.301612 1344.498413 7.171564 1344.368286 C 7.041516 1344.238281 6.976492 1344.086548 6.976492 1343.913086 C 6.976492 1343.718018 7.041516 1343.566406 7.171564 1343.436279 C 7.301612 1343.306274 7.453334 1343.241211 7.626732 1343.241211 L 14.21583 1343.241211 C 15.126165 1343.241211 15.906454 1342.937744 16.535019 1342.287598 C 17.185259 1341.637329 17.51038 1340.857056 17.51038 1339.968384 C 17.51038 1339.057983 17.185259 1338.27771 16.535019 1337.627441 C 15.884779 1336.977295 15.126165 1336.673828 14.21583 1336.673828 Z"/>
        </g>
    </g>
</svg>
